<?xml version="1.0" encoding="UTF-8"?>
<svg version="1.1" xmlns="http://www.w3.org/2000/svg" width="1600" height="384">
<path d="M0 0 C3.84797044 2.29666267 6.91668009 5.28348759 10.05859375 8.45703125 C15.64005312 13.12025053 21.96843004 12.78786076 28.8828125 12.78125 C29.87873917 12.78553513 30.87466583 12.78982025 31.90077209 12.79423523 C34.00114178 12.79996268 36.1015313 12.80049051 38.2019043 12.79614258 C41.40382931 12.7929827 44.60482968 12.81646181 47.80664062 12.84179688 C49.85286342 12.84407013 51.89908869 12.84477324 53.9453125 12.84375 C54.89655502 12.85295975 55.84779755 12.86216949 56.8278656 12.87165833 C64.71951268 12.81710543 70.08943752 11.31294889 75.79296875 5.54296875 C81.82419707 0.00158638 87.82673045 -2.65283721 96.04296875 -3.01953125 C105.37740854 -2.6119712 112.15814985 1.83461967 118.48046875 8.48046875 C119.50571989 9.81561948 120.50649939 11.16996072 121.48046875 12.54296875 C125.13555628 17.63853314 129.69474078 20.78928721 135.015625 24.01953125 C153.7496164 35.39470301 167.43479955 52.24430396 172.85546875 73.73046875 C174.91274682 82.35314729 175.52017338 90.82897101 175.69140625 99.68359375 C175.70581757 100.41555969 175.72022888 101.14752563 175.7350769 101.90167236 C175.79234827 104.95132112 175.84717685 108.00078128 175.88183594 111.05078125 C175.90952159 113.30382058 175.9553283 115.55592065 176.00390625 117.80859375 C176.00878555 118.83064911 176.00878555 118.83064911 176.01376343 119.87335205 C176.13063064 124.44445866 177.03785386 127.61630044 179.48046875 131.48046875 C181.1652231 133.07792487 181.1652231 133.07792487 183.140625 134.15625 C183.84703125 134.58695801 184.5534375 135.01766602 185.28125 135.46142578 C186.02761719 135.90083496 186.77398437 136.34024414 187.54296875 136.79296875 C194.53810832 141.11340954 200.60329361 145.69774821 206.48046875 151.48046875 C207.22296875 152.13917969 207.96546875 152.79789063 208.73046875 153.4765625 C224.95177984 168.37425966 234.28368659 191.75705918 235.48046875 213.48046875 C235.55974609 214.87072266 235.55974609 214.87072266 235.640625 216.2890625 C236.37811106 241.9728163 226.95669571 266.6729895 209.48046875 285.48046875 C194.58168133 300.53422127 175.67852433 311.70936896 154.203125 311.88671875 C153.11897812 311.8981189 152.03483124 311.90951904 150.91783142 311.92126465 C148.62584293 311.9401075 146.33380096 311.95320985 144.04174805 311.9609375 C140.58477384 311.98023538 137.13023929 312.04227934 133.67382812 312.10546875 C111.81978317 312.31425029 95.88375505 306.46004398 78.85546875 292.40625 C76.55577683 290.5415327 74.22474275 288.79374428 71.79296875 287.10546875 C71.12910156 286.64398438 70.46523437 286.1825 69.78125 285.70703125 C64.41943094 282.84860819 59.09969346 282.2295841 53.10253906 282.20922852 C52.40051865 282.20400177 51.69849823 282.19877502 50.97520447 282.19338989 C49.46062686 282.18320649 47.9460148 282.17737944 46.43140411 282.1755085 C44.01430984 282.17180719 41.5976124 282.15497219 39.18060303 282.13475037 C32.31139623 282.07974581 25.44212907 282.04895322 18.57275391 282.02416992 C-44.87429321 281.77206643 -44.87429321 281.77206643 -69.54296875 257.58203125 C-87.31706159 239.448639 -92.67607316 216.88404578 -92.66479492 192.30200195 C-92.66815353 191.23223618 -92.67151215 190.1624704 -92.67497253 189.06028748 C-92.6844115 185.55059625 -92.68642216 182.0409531 -92.6875 178.53125 C-92.69071773 176.07040895 -92.69408219 173.60956808 -92.69758606 171.14872742 C-92.70355989 165.99864255 -92.70542778 160.84857442 -92.70483398 155.69848633 C-92.70473252 149.13337208 -92.71837628 142.56836636 -92.73560619 136.00327778 C-92.7467829 130.92172259 -92.74875145 125.84019316 -92.74822426 120.75862694 C-92.74939616 118.33998427 -92.75377303 115.92134077 -92.76155663 113.50271034 C-92.84516533 84.83750289 -90.29456066 58.48534055 -69.30078125 37.16015625 C-63.26704535 31.34675341 -57.04701116 26.73524548 -49.83203125 22.48046875 C-44.23211823 19.11920795 -40.44836241 15.6389341 -36.51953125 10.48046875 C-27.15205209 -1.37490903 -14.59125341 -6.42571891 0 0 Z M176.79296875 217.98046875 C173.31244222 222.23064489 171.09051514 227.07387075 168.73706055 231.99536133 C165.83043881 237.99392863 162.44112273 243.58157294 158.80566406 249.16381836 C156.63403756 252.5196139 154.80410261 255.67683958 153.48046875 259.48046875 C162.16775935 259.44024981 166.42707115 256.29277207 172.58203125 250.50390625 C179.71471414 243.15751001 184.58017816 233.2948164 184.66796875 222.91796875 C184.68923828 221.77134766 184.68923828 221.77134766 184.7109375 220.6015625 C184.61280625 218.17893372 184.61280625 218.17893372 182.48046875 215.48046875 C179.23481017 215.13991678 179.23481017 215.13991678 176.79296875 217.98046875 Z " fill="#FEFEFE" transform="translate(166.51953125,50.51953125)"/>
<path d="M0 0 C3.84797044 2.29666267 6.91668009 5.28348759 10.05859375 8.45703125 C15.64005312 13.12025053 21.96843004 12.78786076 28.8828125 12.78125 C29.87873917 12.78553513 30.87466583 12.78982025 31.90077209 12.79423523 C34.00114178 12.79996268 36.1015313 12.80049051 38.2019043 12.79614258 C41.40382931 12.7929827 44.60482968 12.81646181 47.80664062 12.84179688 C49.85286342 12.84407013 51.89908869 12.84477324 53.9453125 12.84375 C54.89655502 12.85295975 55.84779755 12.86216949 56.8278656 12.87165833 C64.71951268 12.81710543 70.08943752 11.31294889 75.79296875 5.54296875 C81.82419707 0.00158638 87.82673045 -2.65283721 96.04296875 -3.01953125 C105.37740854 -2.6119712 112.15814985 1.83461967 118.48046875 8.48046875 C119.50571989 9.81561948 120.50649939 11.16996072 121.48046875 12.54296875 C125.13555628 17.63853314 129.69474078 20.78928721 135.015625 24.01953125 C153.7496164 35.39470301 167.43479955 52.24430396 172.85546875 73.73046875 C174.91274682 82.35314729 175.52017338 90.82897101 175.69140625 99.68359375 C175.70581757 100.41555969 175.72022888 101.14752563 175.7350769 101.90167236 C175.79234827 104.95132112 175.84717685 108.00078128 175.88183594 111.05078125 C175.90952159 113.30382058 175.9553283 115.55592065 176.00390625 117.80859375 C176.00878555 118.83064911 176.00878555 118.83064911 176.01376343 119.87335205 C176.13063064 124.44445866 177.03785386 127.61630044 179.48046875 131.48046875 C181.1652231 133.07792487 181.1652231 133.07792487 183.140625 134.15625 C183.84703125 134.58695801 184.5534375 135.01766602 185.28125 135.46142578 C186.02761719 135.90083496 186.77398437 136.34024414 187.54296875 136.79296875 C194.53810832 141.11340954 200.60329361 145.69774821 206.48046875 151.48046875 C207.22296875 152.13917969 207.96546875 152.79789063 208.73046875 153.4765625 C224.95177984 168.37425966 234.28368659 191.75705918 235.48046875 213.48046875 C235.55974609 214.87072266 235.55974609 214.87072266 235.640625 216.2890625 C236.37811106 241.9728163 226.95669571 266.6729895 209.48046875 285.48046875 C194.58168133 300.53422127 175.67852433 311.70936896 154.203125 311.88671875 C153.11897812 311.8981189 152.03483124 311.90951904 150.91783142 311.92126465 C148.62584293 311.9401075 146.33380096 311.95320985 144.04174805 311.9609375 C140.58477384 311.98023538 137.13023929 312.04227934 133.67382812 312.10546875 C111.81978317 312.31425029 95.88375505 306.46004398 78.85546875 292.40625 C76.55577683 290.5415327 74.22474275 288.79374428 71.79296875 287.10546875 C71.12910156 286.64398438 70.46523437 286.1825 69.78125 285.70703125 C64.41943094 282.84860819 59.09969346 282.2295841 53.10253906 282.20922852 C52.40051865 282.20400177 51.69849823 282.19877502 50.97520447 282.19338989 C49.46062686 282.18320649 47.9460148 282.17737944 46.43140411 282.1755085 C44.01430984 282.17180719 41.5976124 282.15497219 39.18060303 282.13475037 C32.31139623 282.07974581 25.44212907 282.04895322 18.57275391 282.02416992 C-44.87429321 281.77206643 -44.87429321 281.77206643 -69.54296875 257.58203125 C-87.31706159 239.448639 -92.67607316 216.88404578 -92.66479492 192.30200195 C-92.66815353 191.23223618 -92.67151215 190.1624704 -92.67497253 189.06028748 C-92.6844115 185.55059625 -92.68642216 182.0409531 -92.6875 178.53125 C-92.69071773 176.07040895 -92.69408219 173.60956808 -92.69758606 171.14872742 C-92.70355989 165.99864255 -92.70542778 160.84857442 -92.70483398 155.69848633 C-92.70473252 149.13337208 -92.71837628 142.56836636 -92.73560619 136.00327778 C-92.7467829 130.92172259 -92.74875145 125.84019316 -92.74822426 120.75862694 C-92.74939616 118.33998427 -92.75377303 115.92134077 -92.76155663 113.50271034 C-92.84516533 84.83750289 -90.29456066 58.48534055 -69.30078125 37.16015625 C-63.26704535 31.34675341 -57.04701116 26.73524548 -49.83203125 22.48046875 C-44.23211823 19.11920795 -40.44836241 15.6389341 -36.51953125 10.48046875 C-27.15205209 -1.37490903 -14.59125341 -6.42571891 0 0 Z M-21.51953125 10.48046875 C-23.02109999 13.48360623 -22.61234329 16.27114397 -22.58203125 19.60546875 C-22.57300781 20.88679688 -22.56398437 22.168125 -22.5546875 23.48828125 C-22.54308594 24.47570312 -22.53148437 25.463125 -22.51953125 26.48046875 C-23.42832031 26.62742187 -23.42832031 26.62742187 -24.35546875 26.77734375 C-42.38882275 29.99560385 -55.81272151 40.21116968 -66.26953125 55.16796875 C-73.66348567 67.82498101 -74.67122163 81.56326079 -74.66479492 95.85839844 C-74.66815353 96.94927765 -74.67151215 98.04015686 -74.67497253 99.16409302 C-74.68441287 102.74352175 -74.68642216 106.32290337 -74.6875 109.90234375 C-74.69071739 112.41042093 -74.69408182 114.91849792 -74.69758606 117.42657471 C-74.70356005 122.67501121 -74.70547083 127.92343591 -74.70483398 133.171875 C-74.70430041 138.53713958 -74.71133508 143.90233206 -74.7253418 149.26757812 C-74.74208531 155.77600788 -74.74888719 162.28437307 -74.74822426 168.79282379 C-74.74939726 171.25974137 -74.75378047 173.72665976 -74.76155663 176.19356537 C-74.83145204 200.65672712 -74.15113105 221.53430115 -55.99609375 240.0546875 C-37.57378522 257.20160544 -17.47412437 257.64330967 6.4609375 257.578125 C8.48545802 257.57625693 10.50997899 257.57483486 12.53450012 257.57383728 C17.82965369 257.57004275 23.12477927 257.56023905 28.41992188 257.5491333 C33.83658469 257.53885288 39.25325209 257.53432553 44.66992188 257.52929688 C55.27344971 257.51861367 65.87695689 257.5015746 76.48046875 257.48046875 C74.98495719 253.68426253 73.3171602 250.03025714 71.54296875 246.35546875 C67.04913258 236.59868019 64.91833026 228.24437978 65.48046875 217.48046875 C68.24296911 216.09921857 70.42777974 216.28967569 73.48046875 216.48046875 C76.22978172 219.22978172 76.5300506 222.30585111 77.35546875 225.98046875 C80.28739115 238.16745671 84.39624107 248.39624107 93.48046875 257.48046875 C111.07608661 258.38938146 125.30383244 251.68599096 138.5625 240.765625 C147.90525992 232.13991664 153.69440832 220.76653852 156.48046875 208.48046875 C156.15046875 207.49046875 155.82046875 206.50046875 155.48046875 205.48046875 C154.79009521 206.2075 154.09972168 206.93453125 153.38842773 207.68359375 C150.81407685 210.38496787 148.21635943 213.06284128 145.61108398 215.734375 C144.48839629 216.89219221 143.37208 218.05622399 142.26245117 219.2265625 C140.66282821 220.91143182 139.04134748 222.57235431 137.4140625 224.23046875 C136.92522079 224.75543945 136.43637909 225.28041016 135.932724 225.82128906 C133.29486775 228.46205108 131.64814293 229.45196044 127.93945312 230.08251953 C123.71378155 229.34702362 122.21968561 228.10874007 119.203125 225.09765625 C118.27822266 224.17726563 117.35332031 223.256875 116.40039062 222.30859375 C115.93173584 221.82326172 115.46308105 221.33792969 114.98022461 220.83789062 C113.54473894 219.35729457 112.07768204 217.91463133 110.60351562 216.47265625 C103.59025107 209.36561828 103.59025107 209.36561828 103.08374023 205.28173828 C103.48046875 202.48046875 103.48046875 202.48046875 105.48046875 200.48046875 C108.10546875 199.91796875 108.10546875 199.91796875 111.48046875 200.48046875 C114.4530828 202.50110929 116.93694853 204.95113173 119.48046875 207.48046875 C120.23585938 208.22167969 120.99125 208.96289062 121.76953125 209.7265625 C123.68935047 211.62942218 125.59188236 213.54667683 127.48046875 215.48046875 C128.84365234 214.29710937 128.84365234 214.29710937 130.234375 213.08984375 C132.51629309 211.11436616 134.8215031 209.21806904 137.21435547 207.37695312 C151.05381976 197.00173947 151.05381976 197.00173947 158.5390625 182.08056641 C159.72679719 172.26119296 158.77338605 162.24350779 157.48046875 152.48046875 C145.96822888 146.51193483 131.42176469 149.43535857 119.48046875 152.48046875 C113.25107587 153.92791804 113.25107587 153.92791804 110.54296875 152.35546875 C109.14695293 149.89191143 109.20090376 148.27611866 109.48046875 145.48046875 C109.81046875 144.49046875 110.14046875 143.50046875 110.48046875 142.48046875 C113.3515625 141.56640625 113.3515625 141.56640625 116.91796875 140.85546875 C121.32959241 140.04864455 121.32959241 140.04864455 125.48046875 138.48046875 C127.88885553 138.39407006 130.26780756 138.36479111 132.67578125 138.3828125 C133.38322479 138.38422745 134.09066833 138.3856424 134.81954956 138.38710022 C137.08156544 138.39270275 139.34348273 138.40525557 141.60546875 138.41796875 C143.1380194 138.42298343 144.67057161 138.42754639 146.203125 138.43164062 C149.96227763 138.44267298 153.72135647 138.45993923 157.48046875 138.48046875 C157.5316873 131.20714365 157.56641717 123.93386602 157.59033203 116.66040039 C157.60031463 114.19228375 157.61390543 111.72417871 157.63134766 109.25610352 C157.80549476 83.95867536 157.80360566 62.13208984 138.95703125 42.90625 C130.06452015 34.62937429 118.1678643 26.48046875 105.48046875 26.48046875 C105.53847656 25.52785156 105.59648437 24.57523438 105.65625 23.59375 C106.1143199 16.01195138 106.1143199 16.01195138 103.41796875 9.16796875 C99.90007697 7.1470522 97.54310174 6.48046875 93.48046875 6.48046875 C90.55700318 7.84475268 88.75295966 9.20797784 86.48046875 11.48046875 C85.07624271 16.41018865 85.07624271 16.41018865 85.48046875 25.48046875 C56.44046875 25.48046875 27.40046875 25.48046875 -2.51953125 25.48046875 C-2.51953125 22.18046875 -2.51953125 18.88046875 -2.51953125 15.48046875 C-3.80834633 11.74968825 -4.81005553 10.04058116 -7.89453125 7.60546875 C-13.7113916 5.1125286 -16.62968792 6.70195345 -21.51953125 10.48046875 Z M176.79296875 217.98046875 C173.31244222 222.23064489 171.09051514 227.07387075 168.73706055 231.99536133 C165.83043881 237.99392863 162.44112273 243.58157294 158.80566406 249.16381836 C156.63403756 252.5196139 154.80410261 255.67683958 153.48046875 259.48046875 C162.16775935 259.44024981 166.42707115 256.29277207 172.58203125 250.50390625 C179.71471414 243.15751001 184.58017816 233.2948164 184.66796875 222.91796875 C184.68923828 221.77134766 184.68923828 221.77134766 184.7109375 220.6015625 C184.61280625 218.17893372 184.61280625 218.17893372 182.48046875 215.48046875 C179.23481017 215.13991678 179.23481017 215.13991678 176.79296875 217.98046875 Z " fill="#000000" transform="translate(166.51953125,50.51953125)"/>
<path d="M0 0 C1.78954102 0.00193359 1.78954102 0.00193359 3.61523438 0.00390625 C15.47608483 0.12127585 25.10072678 2.29237291 35.8125 7.375 C36.781875 7.83390625 37.75125 8.2928125 38.75 8.765625 C56.14818634 17.92743589 68.74311755 34.74440411 74.75 53.265625 C80.41161155 73.19014256 78.73162673 93.63325058 69.8125 112.375 C58.66694079 131.91021428 41.97214828 145.50708656 20.3125 151.8125 C2.0597234 156.24315792 -18.58264986 154.32090225 -35.1875 145.375 C-35.98285156 144.95605469 -36.77820313 144.53710938 -37.59765625 144.10546875 C-44.27396624 140.35971832 -49.72625772 135.71028282 -55.1875 130.375 C-55.87714844 129.74464844 -56.56679687 129.11429688 -57.27734375 128.46484375 C-68.71231958 117.07515495 -75.44899414 98.49809753 -75.5859375 82.58984375 C-75.45445312 81.85894531 -75.32296875 81.12804687 -75.1875 80.375 C-71.71826119 78.06217413 -70.26544425 77.95021414 -66.1875 78.375 C-62.48198561 80.85150338 -62.12947297 84.85322376 -61.25 88.9375 C-58.65038753 99.96118873 -55.3181768 110.03235025 -47.1875 118.375 C-38.41648721 121.58462863 -25.54456622 117.42576423 -17.3203125 113.98046875 C-8.09054321 109.2504997 -0.51030647 102.54442051 5.8125 94.375 C6.28171875 93.77558594 6.7509375 93.17617188 7.234375 92.55859375 C11.65650569 86.2393144 13.57920918 78.67358447 15.8125 71.375 C15.4825 71.045 15.1525 70.715 14.8125 70.375 C14.15241943 71.07173828 13.49233887 71.76847656 12.81225586 72.48632812 C10.34974702 75.0758971 7.86384404 77.64193188 5.37036133 80.20166016 C4.29616693 81.31097587 3.22834848 82.42650386 2.16723633 83.54833984 C0.6371228 85.16373839 -0.91483701 86.75510876 -2.47265625 88.34375 C-2.93962418 88.84684692 -3.4065921 89.34994385 -3.88771057 89.86828613 C-6.46545632 92.44899504 -8.07907952 93.35642267 -11.70117188 93.97705078 C-16.0416218 93.2275025 -17.58402051 91.86764962 -20.68359375 88.7734375 C-21.16200211 88.29935455 -21.64041046 87.82527161 -22.13331604 87.33682251 C-23.13576073 86.33475772 -24.12956428 85.32398141 -25.11499023 84.30517578 C-26.62285904 82.752205 -28.1624392 81.23700733 -29.70898438 79.72265625 C-30.68177369 78.74164765 -31.65254969 77.75863764 -32.62109375 76.7734375 C-33.49822021 75.88317871 -34.37534668 74.99291992 -35.27905273 74.07568359 C-37.54732743 70.86580069 -37.68009456 69.22447265 -37.1875 65.375 C-36.0625 63.5 -36.0625 63.5 -34.1875 62.375 C-31.5 61.75 -31.5 61.75 -28.1875 62.375 C-25.21929037 64.40296931 -22.73154062 66.84514548 -20.1875 69.375 C-19.43210937 70.11621094 -18.67671875 70.85742188 -17.8984375 71.62109375 C-15.97861828 73.52395343 -14.07608639 75.44120808 -12.1875 77.375 C-11.26839844 76.57578125 -10.34929687 75.7765625 -9.40234375 74.953125 C-7.16352426 73.01495827 -4.90434979 71.15945602 -2.54736328 69.36523438 C10.75026909 59.44451395 10.75026909 59.44451395 17.82373047 45.02246094 C18.96763943 35.18618422 18.04494039 25.16040435 16.8125 15.375 C14.93694263 15.04393011 13.06044998 14.71815666 11.18359375 14.39453125 C10.13872803 14.21253174 9.0938623 14.03053223 8.01733398 13.84301758 C-1.92447924 12.39116598 -10.54334473 13.8994949 -20.1875 16.375 C-22.68980467 17.00495083 -24.58004646 17.31952227 -27.1875 17.375 C-29.625 15.75 -29.625 15.75 -31.1875 13.375 C-31.6875 10.875 -31.6875 10.875 -31.1875 8.375 C-23.86693334 -0.4947055 -10.55911457 -0.21890145 0 0 Z M37.125 80.875 C33.64447347 85.12517614 31.42254639 89.968402 29.0690918 94.88989258 C26.16247006 100.88845988 22.77315398 106.47610419 19.13769531 112.05834961 C16.96606881 115.41414515 15.13613386 118.57137083 13.8125 122.375 C22.4997906 122.33478106 26.7591024 119.18730332 32.9140625 113.3984375 C40.04674539 106.05204126 44.91220941 96.18934765 45 85.8125 C45.02126953 84.66587891 45.02126953 84.66587891 45.04296875 83.49609375 C44.9448375 81.07346497 44.9448375 81.07346497 42.8125 78.375 C39.56684142 78.03444803 39.56684142 78.03444803 37.125 80.875 Z " fill="#000000" transform="translate(306.1875,187.625)"/>
<path d="M0 0 C1.78954102 0.00193359 1.78954102 0.00193359 3.61523438 0.00390625 C15.47608483 0.12127585 25.10072678 2.29237291 35.8125 7.375 C36.781875 7.83390625 37.75125 8.2928125 38.75 8.765625 C56.14818634 17.92743589 68.74311755 34.74440411 74.75 53.265625 C80.41161155 73.19014256 78.73162673 93.63325058 69.8125 112.375 C58.66694079 131.91021428 41.97214828 145.50708656 20.3125 151.8125 C2.0597234 156.24315792 -18.58264986 154.32090225 -35.1875 145.375 C-35.98285156 144.95605469 -36.77820313 144.53710938 -37.59765625 144.10546875 C-44.27396624 140.35971832 -49.72625772 135.71028282 -55.1875 130.375 C-55.87714844 129.74464844 -56.56679687 129.11429688 -57.27734375 128.46484375 C-68.71231958 117.07515495 -75.44899414 98.49809753 -75.5859375 82.58984375 C-75.45445312 81.85894531 -75.32296875 81.12804687 -75.1875 80.375 C-71.71826119 78.06217413 -70.26544425 77.95021414 -66.1875 78.375 C-62.48198561 80.85150338 -62.12947297 84.85322376 -61.25 88.9375 C-57.10912861 106.49691619 -49.04355203 119.80053203 -33.30957031 129.53710938 C-17.4414318 138.73350686 -1.03676014 141.87039485 16.87475586 137.21386719 C32.0977748 132.89730046 46.14277824 123.63824734 53.984375 109.62890625 C62.52817972 93.55938051 66.27524231 76.18188436 60.9140625 58.26953125 C54.34229219 41.00115606 44.21238544 27.46839337 27.0625 19.5 C25.31906796 18.77565144 23.5694845 18.06582672 21.8125 17.375 C21.10351562 17.06820312 20.39453125 16.76140625 19.6640625 16.4453125 C14.75420479 14.40762452 10.10585004 13.65139328 4.8125 13.375 C3.43578125 13.29572266 3.43578125 13.29572266 2.03125 13.21484375 C-5.76616165 12.97886945 -12.66679363 14.44455131 -20.1875 16.375 C-22.68980467 17.00495083 -24.58004646 17.31952227 -27.1875 17.375 C-29.625 15.75 -29.625 15.75 -31.1875 13.375 C-31.6875 10.875 -31.6875 10.875 -31.1875 8.375 C-23.86693334 -0.4947055 -10.55911457 -0.21890145 0 0 Z " fill="#0DB0AA" transform="translate(306.1875,187.625)"/>
<path d="M0 0 C3.38031589 1.18767855 3.93216817 1.89825225 6 5 C6.17177775 7.75786415 6.23216238 10.41215524 6.1953125 13.16796875 C6.1924826 13.96278152 6.18965271 14.7575943 6.18673706 15.57649231 C6.17554705 18.11364838 6.15044491 20.65045072 6.125 23.1875 C6.11496866 24.90819802 6.10584308 26.62890159 6.09765625 28.34960938 C6.07561161 32.56654243 6.04109006 36.78321125 6 41 C7.55110474 40.97643433 7.55110474 40.97643433 9.13354492 40.95239258 C12.98193527 40.89795946 16.83029179 40.86360151 20.67895508 40.83520508 C22.34242481 40.82014886 24.00585505 40.79969937 25.66918945 40.77368164 C28.06471522 40.73715793 30.45971467 40.72024218 32.85546875 40.70703125 C33.96513252 40.68380547 33.96513252 40.68380547 35.09721375 40.66011047 C39.59366278 40.65865568 42.445595 41.19609242 46 44 C48.46751239 47.70126859 48.30721156 49.62223532 48 54 C47.11598765 57.18244445 46.24888925 57.84758399 43.40185547 59.59106445 C39.53869965 61.19105528 36.29727334 61.38490276 32.1953125 61.29296875 C31.4713327 61.28872391 30.74735291 61.28447906 30.00143433 61.28010559 C27.70889713 61.26342972 25.41726754 61.22580081 23.125 61.1875 C21.56251278 61.17243871 20.00001165 61.15875284 18.4375 61.14648438 C14.62465495 61.11356293 10.81248089 61.06186002 7 61 C7.01571045 61.96824707 7.0314209 62.93649414 7.04760742 63.93408203 C7.10213985 67.54581294 7.13643419 71.15750785 7.16479492 74.76953125 C7.17982869 76.32916394 7.20026135 77.88875472 7.22631836 79.44824219 C7.26294211 81.69737116 7.27978021 83.94593847 7.29296875 86.1953125 C7.30845261 86.8861795 7.32393646 87.57704651 7.33988953 88.28884888 C7.34148302 92.93187231 6.41986722 96.04845375 4 100 C1.51543895 101.95215511 -0.26468047 102.03368661 -3.4375 102.4375 C-7.91903826 101.88713565 -9.20852117 100.44829737 -12 97 C-13.53297297 93.93405406 -13.12131455 90.72888147 -13.09765625 87.3671875 C-13.0962413 86.61535187 -13.09482635 85.86351624 -13.09336853 85.08889771 C-13.08776465 82.6842249 -13.07521157 80.27964473 -13.0625 77.875 C-13.0574855 76.24609509 -13.0529225 74.61718873 -13.04882812 72.98828125 C-13.03779397 68.99215173 -13.02052679 64.99609158 -13 61 C-14.50566528 61.02356567 -14.50566528 61.02356567 -16.04174805 61.04760742 C-19.77831955 61.10205114 -23.51485621 61.13640226 -27.25170898 61.16479492 C-28.86667789 61.17984876 -30.48160613 61.20029648 -32.09643555 61.22631836 C-34.42246555 61.26285286 -36.74795341 61.27976015 -39.07421875 61.29296875 C-40.15107185 61.31619453 -40.15107185 61.31619453 -41.24967957 61.33988953 C-45.69442381 61.34136991 -48.45191992 60.70537474 -52 58 C-54.56619697 54.57840405 -54.50984054 51.15155867 -54 47 C-51.8272578 44.36983839 -50.05326212 42.52663106 -47 41 C-44.44637396 40.91341431 -41.9204558 40.88437484 -39.3671875 40.90234375 C-38.23943405 40.90446617 -38.23943405 40.90446617 -37.08889771 40.90663147 C-34.6842249 40.91223535 -32.27964473 40.92478843 -29.875 40.9375 C-28.24609509 40.9425145 -26.61718873 40.9470775 -24.98828125 40.95117188 C-20.99215173 40.96220603 -16.99609158 40.97947321 -13 41 C-13.01571045 39.99622314 -13.0314209 38.99244629 -13.04760742 37.95825195 C-13.10205114 34.22168045 -13.13640226 30.48514379 -13.16479492 26.74829102 C-13.17984876 25.13332211 -13.20029648 23.51839387 -13.22631836 21.90356445 C-13.26285286 19.57753445 -13.27976015 17.25204659 -13.29296875 14.92578125 C-13.30845261 14.20787918 -13.32393646 13.48997711 -13.33988953 12.75032043 C-13.3413697 8.30622671 -12.75629073 5.51661899 -10 2 C-6.29873141 -0.46751239 -4.37776468 -0.30721156 0 0 Z " fill="#2294EA" transform="translate(211,157)"/>
<path d="M0 0 C3.04883483 2.97065958 4.84283097 5.64708724 5.1328125 9.98828125 C5.12382861 12.6609883 5.07574527 15.32825791 5 18 C4.97164063 19.1859375 4.94328125 20.371875 4.9140625 21.59375 C4.83285156 23.43453125 4.83285156 23.43453125 4.75 25.3125 C4.70359375 26.46363281 4.6571875 27.61476563 4.609375 28.80078125 C3.88359543 32.611124 2.78045773 34.32180079 0 37 C-2.99884501 38.16413125 -5.80560359 38.27331734 -9 38 C-12 36.5625 -12 36.5625 -14 34 C-14.6930062 31.26444921 -14.85768454 28.84630919 -15 26 C-31.82125159 31.32877605 -44.14853967 38.93844881 -53.359375 54.38671875 C-57.74725188 64.05049521 -59.59512259 73.09875549 -59.50170898 83.66821289 C-59.50981346 85.45631126 -59.50981346 85.45631126 -59.51808167 87.28053284 C-59.5283461 90.50798161 -59.52098558 93.73474662 -59.50437045 96.96214986 C-59.49036142 100.36510431 -59.49699771 103.76803224 -59.50050354 107.17100525 C-59.50319294 112.88077383 -59.48983915 118.59033067 -59.46655273 124.30004883 C-59.43993815 130.87067393 -59.43820468 137.44094571 -59.4499411 144.01160628 C-59.4607757 150.37348448 -59.45448836 156.73523676 -59.44038582 163.09710503 C-59.43467628 165.78619862 -59.43466845 168.47519852 -59.43945122 171.16429329 C-59.44238222 174.93013473 -59.42576586 178.69541178 -59.40405273 182.46118164 C-59.40855438 183.55710632 -59.41305603 184.65303101 -59.41769409 185.78216553 C-59.26862004 201.45115936 -54.332289 215.34141603 -43.421875 226.74609375 C-32.2812189 237.11409144 -19.699727 242.27993957 -4.5546875 242.31884766 C-3.64643723 242.32889328 -2.73818695 242.3389389 -1.80241394 242.34928894 C1.17338478 242.37996274 4.1490942 242.3971119 7.125 242.4140625 C9.19865682 242.43278687 11.27230612 242.45236122 13.34594727 242.4727478 C18.78411414 242.52394087 24.22230567 242.56363511 29.6605835 242.60089111 C35.21779417 242.64101134 40.77490336 242.69206703 46.33203125 242.7421875 C57.22128275 242.83879487 68.11059171 242.92324806 79 243 C79.33 242.34 79.66 241.68 80 241 C84 247.75 84 247.75 84 250 C72.39415159 250.04657272 60.78832584 250.08199493 49.18240261 250.10362434 C43.79189666 250.11401127 38.40145519 250.12807624 33.01098633 250.15087891 C27.79789163 250.1727904 22.5848585 250.18460679 17.37172127 250.18975449 C15.39406428 250.19341767 13.41641023 250.20056973 11.43877983 250.21146011 C-11.95444378 250.33502539 -31.91615473 248.78628838 -49.57421875 231.4765625 C-63.72970365 216.2681903 -67.15437563 199.8901086 -67.14526367 179.62207031 C-67.14862228 178.5311911 -67.1519809 177.44031189 -67.15544128 176.31637573 C-67.16488162 172.736947 -67.16689091 169.15756538 -67.16796875 165.578125 C-67.17118614 163.07004782 -67.17455057 160.56197083 -67.17805481 158.05389404 C-67.1840288 152.80545754 -67.18593958 147.55703284 -67.18530273 142.30859375 C-67.18476916 136.94332917 -67.19180383 131.57813669 -67.20581055 126.21289062 C-67.22255406 119.70446087 -67.22935594 113.19609568 -67.22869301 106.68764496 C-67.22986601 104.22072738 -67.23424922 101.75380899 -67.24202538 99.28690338 C-67.31192079 74.82374163 -66.6315998 53.9461676 -48.4765625 35.42578125 C-39.5840514 27.14890554 -27.68739555 19 -15 19 C-15.05800781 18.04738281 -15.11601562 17.09476563 -15.17578125 16.11328125 C-15.53826576 6.03621198 -15.53826576 6.03621198 -13.95703125 2.9921875 C-9.69400541 -1.18332755 -5.6005375 -1.64134564 0 0 Z " fill="#E0E6EE" transform="translate(159,58)"/>
<path d="M0 0 C42.19511218 0 42.19511218 0 54.17578125 11.015625 C61.39931988 18.87335011 63.39022522 28.50867608 63.3125 38.875 C63.30404053 40.06125977 63.30404053 40.06125977 63.29541016 41.27148438 C63.07405205 51.94050661 59.97207098 62.23428107 52.078125 69.85546875 C37.02350541 81.67159459 18.40030281 79 0 79 C0 52.93 0 26.86 0 0 Z M11 9 C11 29.13 11 49.26 11 70 C29.28432744 70.22919439 29.28432744 70.22919439 45 62 C51.73824241 54.32633099 52.43109391 45.29188341 52.2421875 35.46875 C51.68861695 27.54019115 49.64424399 21.49596683 44.0859375 15.69140625 C34.61553401 8.01222139 22.52698408 9 11 9 Z " fill="#0F172A" transform="translate(410,136)"/>
<path d="M0 0 C2.89069337 1.71119269 5.24110619 3.68754056 7.4375 6.25 C8.489375 5.1053125 8.489375 5.1053125 9.5625 3.9375 C14.70370046 -0.86840478 18.94239604 -2.16765307 25.9375 -2.125 C27.2059375 -2.13273438 28.474375 -2.14046875 29.78125 -2.1484375 C34.87049416 -1.59384038 38.17011491 -0.08779537 41.6875 3.625 C44.42935386 7.73778079 45.69122601 11.18382431 45.66455078 16.13208008 C45.66439972 17.07267776 45.66424866 18.01327545 45.66409302 18.9823761 C45.65377045 19.9846373 45.64344788 20.9868985 45.6328125 22.01953125 C45.6299826 23.05567062 45.62715271 24.09181 45.62423706 25.15934753 C45.61306454 28.46051707 45.58796505 31.76141281 45.5625 35.0625 C45.55246643 37.30403253 45.54334124 39.54556933 45.53515625 41.78710938 C45.51313474 47.27484467 45.47862476 52.76237595 45.4375 58.25 C42.1375 58.25 38.8375 58.25 35.4375 58.25 C35.42291748 56.97882324 35.40833496 55.70764648 35.39331055 54.39794922 C35.33520193 49.66768708 35.25796952 44.9378947 35.17504883 40.20800781 C35.14185859 38.1634892 35.11380837 36.11888026 35.09106445 34.07421875 C35.05741007 31.12981794 35.00508834 28.18624046 34.94921875 25.2421875 C34.94282883 24.3325827 34.9364389 23.42297791 34.92985535 22.48580933 C34.81266882 17.39178771 34.41850739 13.58375144 31.4375 9.25 C26.3548997 7.18250157 22.45446959 6.80038001 17.1953125 8.4296875 C14.27288063 9.79348904 13.03334484 11.48796086 11.4375 14.25 C9.59020934 19.62039176 9.10720209 24.42041072 9.0234375 30.02734375 C9.00407135 30.83869278 8.9847052 31.65004181 8.9647522 32.48597717 C8.90543034 35.05304772 8.85876264 37.62016429 8.8125 40.1875 C8.77427648 41.93816956 8.73522226 43.68882119 8.6953125 45.43945312 C8.59976844 49.70948816 8.51556463 53.9796111 8.4375 58.25 C5.1375 58.25 1.8375 58.25 -1.5625 58.25 C-1.57708252 57.01435303 -1.59166504 55.77870605 -1.60668945 54.50561523 C-1.66487196 49.90018472 -1.74210345 45.29523294 -1.82495117 40.69018555 C-1.85810684 38.70100706 -1.88616765 36.71173661 -1.90893555 34.72241211 C-1.942654 31.85490916 -1.99497823 28.98824183 -2.05078125 26.12109375 C-2.05717117 25.23852402 -2.0635611 24.35595428 -2.07014465 23.44664001 C-2.19855705 17.9950095 -2.98329308 14.0836189 -5.5625 9.25 C-9.16904302 6.81098532 -13.65815751 7.02045713 -17.8125 7.8125 C-21.71235265 9.02833641 -23.51715476 10.63131228 -25.5625 14.25 C-27.23242907 19.89880227 -27.88569174 25.03633161 -27.9765625 30.90625 C-27.99592865 31.69398804 -28.0152948 32.48172607 -28.0352478 33.29333496 C-28.09443546 35.77878412 -28.14118226 38.26428115 -28.1875 40.75 C-28.22573595 42.44793548 -28.26479084 44.14585273 -28.3046875 45.84375 C-28.4000858 49.9790164 -28.48433742 54.11437338 -28.5625 58.25 C-31.8625 58.25 -35.1625 58.25 -38.5625 58.25 C-38.5625 38.78 -38.5625 19.31 -38.5625 -0.75 C-35.9225 -0.75 -33.2825 -0.75 -30.5625 -0.75 C-29.5625 0.25 -29.5625 0.25 -29.5 2.8125 C-29.520625 3.616875 -29.54125 4.42125 -29.5625 5.25 C-28.94761719 4.82847656 -28.33273437 4.40695313 -27.69921875 3.97265625 C-26.89097656 3.42480469 -26.08273437 2.87695312 -25.25 2.3125 C-24.44949219 1.76722656 -23.64898438 1.22195312 -22.82421875 0.66015625 C-16.43699618 -3.32220532 -6.72089581 -3.23363855 0 0 Z " fill="#1D7AEA" transform="translate(725.5625,156.75)"/>
<path d="M0 0 C1.20560326 -0.00929787 1.20560326 -0.00929787 2.43556213 -0.01878357 C4.13256623 -0.02587574 5.82963999 -0.02271815 7.52661133 -0.01000977 C10.11735743 0.00384449 12.70448149 -0.03020312 15.29492188 -0.06835938 C16.94661546 -0.06931076 18.59831356 -0.06745071 20.25 -0.0625 C21.40646278 -0.08238731 21.40646278 -0.08238731 22.58628845 -0.10267639 C26.58886002 -0.03371956 28.48869328 0.40988063 31.69165039 2.88305664 C34.28653534 6.36497344 34.23284488 8.31224556 33.69140625 12.56640625 C32.8073939 15.7488507 31.9402955 16.41399024 29.09326172 18.1574707 C25.2301059 19.75746153 21.98867959 19.95130901 17.88671875 19.859375 C17.16273895 19.85513016 16.43875916 19.85088531 15.69284058 19.84651184 C13.40030338 19.82983597 11.10867379 19.79220706 8.81640625 19.75390625 C7.25391903 19.73884496 5.6914179 19.72515909 4.12890625 19.71289062 C0.3160612 19.67996918 -3.49611286 19.62826627 -7.30859375 19.56640625 C-7.2928833 20.53465332 -7.27717285 21.50290039 -7.26098633 22.50048828 C-7.2064539 26.11221919 -7.17215956 29.7239141 -7.14379883 33.3359375 C-7.12876506 34.89557019 -7.1083324 36.45516097 -7.08227539 38.01464844 C-7.04565164 40.26377741 -7.02881354 42.51234472 -7.015625 44.76171875 C-7.00014114 45.45258575 -6.98465729 46.14345276 -6.96870422 46.85525513 C-6.96711073 51.49827856 -7.88872653 54.61486 -10.30859375 58.56640625 C-12.7931548 60.51856136 -14.57327422 60.60009286 -17.74609375 61.00390625 C-21.30859375 60.56640625 -21.30859375 60.56640625 -23.98754883 58.56005859 C-26.91230229 54.78775115 -27.04990753 51.82061811 -27.0078125 47.23046875 C-27.0149678 46.43289154 -27.02212311 45.63531433 -27.02949524 44.81356812 C-27.0372579 43.13093174 -27.03229029 41.44819432 -27.01538086 39.765625 C-26.99619615 37.20507322 -27.03550467 34.64998553 -27.08007812 32.08984375 C-27.08036862 30.44921555 -27.07722529 28.80858242 -27.0703125 27.16796875 C-27.08559494 26.41045319 -27.10087738 25.65293762 -27.11662292 24.87246704 C-27.00015406 19.49575597 -25.41569216 16.73294819 -21.78962708 12.79525757 C-20.30859375 11.56640625 -20.30859375 11.56640625 -18.30859375 11.56640625 C-17.97859375 10.57640625 -17.64859375 9.58640625 -17.30859375 8.56640625 C-15.67255179 7.19566839 -14.00181314 5.86585369 -12.30859375 4.56640625 C-11.76452881 3.87554932 -11.22046387 3.18469238 -10.65991211 2.47290039 C-7.31135308 -0.24217566 -4.12944872 -0.02649617 0 0 Z " fill="#227CEA" transform="translate(225.30859375,198.43359375)"/>
<path d="M0 0 C2.9375 1.6875 2.9375 1.6875 5 5 C5.41527786 9.69583427 5.28625721 14.29902052 5 19 C5.60585938 19.09796875 6.21171875 19.1959375 6.8359375 19.296875 C24.8692915 22.5151351 38.29319026 32.73070093 48.75 47.6875 C56.55572521 61.07648699 57.16829573 75.57820512 57.09765625 90.66796875 C57.0962413 91.82879471 57.09482635 92.98962067 57.09336853 94.18562317 C57.08782058 97.8529429 57.07527805 101.52019907 57.0625 105.1875 C57.05747826 107.69075432 57.05291654 110.19400961 57.04882812 112.69726562 C57.03872386 118.79822062 57.0191386 124.89904008 57 131 C48.42 130.67 39.84 130.34 31 130 C31 129.67 31 129.34 31 129 C36.94 129 42.88 129 49 129 C48.93680559 121.21905791 48.86116365 113.43846833 48.76428509 105.6578846 C48.71977183 102.04408166 48.68047543 98.43038653 48.65356445 94.81640625 C48.62733922 91.32133537 48.58680577 87.82668367 48.53681374 84.33187485 C48.51228631 82.36580708 48.50215028 80.39957648 48.49235535 78.43338013 C48.25633967 63.88062115 43.90059599 51.95301804 33.8125 41.1875 C25.50101402 33.41133006 15.83999298 29.09439516 5 26 C4.896875 27.258125 4.79375 28.51625 4.6875 29.8125 C4.48081327 32.33407811 4.25317342 33.66035812 2.73046875 35.703125 C-0.45201916 38.08819495 -4.11457326 38.24539537 -8 38 C-10.92143417 36.23496686 -12.47923817 35.04152365 -14 32 C-16.49616277 9.07228271 -16.49616277 9.07228271 -13 3 C-9.27042395 -1.54035345 -5.47642646 -1.32189604 0 0 Z " fill="#E0E7EE" transform="translate(267,58)"/>
<path d="M0 0 C6.75292534 4.14678571 9.96516023 8.89548069 12.4375 16.3125 C12.4375 20.9325 12.4375 25.5525 12.4375 30.3125 C-0.4325 30.6425 -13.3025 30.9725 -26.5625 31.3125 C-24.96414561 39.82038887 -24.96414561 39.82038887 -20.5625 46.3125 C-14.81181811 49.83332564 -9.19366482 50.02006615 -2.5625 49.3125 C0.13849456 48.66246811 2.72303907 47.88770058 5.34375 46.96875 C7.4375 46.3125 7.4375 46.3125 10.4375 46.3125 C10.4375 49.2825 10.4375 52.2525 10.4375 55.3125 C-0.15505878 59.44180257 -11.55385437 61.51396475 -22.5625 57.3125 C-29.63496873 53.42456059 -33.68253835 47.95282787 -36.671875 40.57421875 C-39.42060347 30.5076035 -38.56454358 18.49070457 -33.5625 9.3125 C-26.66583158 -1.8605221 -11.95142248 -5.54564111 0 0 Z M-22.5625 10.3125 C-25.4704058 14.27634925 -26.5625 17.38825453 -26.5625 22.3125 C-17.3225 22.3125 -8.0825 22.3125 1.4375 22.3125 C1.52148112 14.80543714 1.52148112 14.80543714 -2.5625 9.3125 C-9.48952483 4.79487511 -16.07758816 5.34533348 -22.5625 10.3125 Z " fill="#1F73EA" transform="translate(821.5625,156.6875)"/>
<path d="M0 0 C6.94996875 4.36393387 10.16453927 11.22580412 12 19 C13.03321992 30.67778792 12.28272281 41.05729057 4.6875 50.5 C-0.82128428 56.26829874 -7.43959118 57.93920519 -15.25 58.25 C-23.35389525 58.10216775 -29.40755095 55.53112942 -35.27734375 49.94140625 C-41.46747364 42.96522812 -43.19713936 34.15089769 -42.84765625 25.01953125 C-41.94068208 14.22892877 -39.19730474 7.34851831 -30.94140625 0.2265625 C-22.14703835 -5.32963775 -9.00799017 -4.67080972 0 0 Z M-26.61328125 9.29296875 C-31.98010721 15.19806044 -32.45989024 22.24515792 -32.31640625 29.859375 C-31.67292946 36.24647797 -29.9660607 41.9859866 -25.4375 46.625 C-20.66054202 49.31969425 -16.35824836 49.50462955 -11 49 C-5.50801903 47.03117663 -2.56301196 44.04168875 0.0859375 38.88671875 C1.33288252 34.94871716 1.36821671 31.29478304 1.375 27.1875 C1.41173828 26.03411133 1.41173828 26.03411133 1.44921875 24.85742188 C1.47816429 19.14067717 0.24366164 14.75226045 -3 10 C-10.02199905 3.91426749 -19.23682691 3.38108888 -26.61328125 9.29296875 Z " fill="#0F172A" transform="translate(526,158)"/>
<path d="M0 0 C19.47 0 38.94 0 59 0 C59 3.3 59 6.6 59 10 C51.08 10 43.16 10 35 10 C35 32.77 35 55.54 35 79 C31.7 79 28.4 79 25 79 C25 56.23 25 33.46 25 10 C16.75 10 8.5 10 0 10 C0 6.7 0 3.4 0 0 Z " fill="#1886EA" transform="translate(593,136)"/>
<path d="M0 0 C2.36002096 1.54622063 2.90125807 2.7319862 3.875 5.375 C4.06222366 9.3066969 2.23590183 11.60667856 -0.33789062 14.50830078 C-1.92707738 16.16038006 -3.54872309 17.77213631 -5.1875 19.375 C-5.99670898 20.18324219 -5.99670898 20.18324219 -6.82226562 21.0078125 C-9.74380388 23.89838039 -12.73505805 26.65403791 -15.859375 29.32421875 C-18.8979298 31.95132921 -21.70503241 34.70994138 -24.47265625 37.62109375 C-25.60477539 38.80541992 -25.60477539 38.80541992 -26.75976562 40.01367188 C-28.31046809 41.64592104 -29.8493744 43.28944925 -31.37695312 44.94335938 C-32.13041016 45.72388672 -32.88386719 46.50441406 -33.66015625 47.30859375 C-34.32668213 48.01814209 -34.99320801 48.72769043 -35.67993164 49.45874023 C-39.00502702 51.66765606 -41.08566471 51.56794244 -45 51 C-47.81420898 49.07568359 -47.81420898 49.07568359 -50.49609375 46.3984375 C-51.21370628 45.68731308 -51.21370628 45.68731308 -51.94581604 44.96182251 C-52.94826073 43.95975772 -53.94206428 42.94898141 -54.92749023 41.93017578 C-56.43535904 40.377205 -57.9749392 38.86200733 -59.52148438 37.34765625 C-60.49427369 36.36664765 -61.46504969 35.38363764 -62.43359375 34.3984375 C-63.31072021 33.50817871 -64.18784668 32.61791992 -65.09155273 31.70068359 C-67.35982743 28.49080069 -67.49259456 26.84947265 -67 23 C-65.875 21.125 -65.875 21.125 -64 20 C-61.3125 19.375 -61.3125 19.375 -58 20 C-55.03179037 22.02796931 -52.54404062 24.47014548 -50 27 C-49.24460937 27.74121094 -48.48921875 28.48242188 -47.7109375 29.24609375 C-45.79111828 31.14895343 -43.88858639 33.06620808 -42 35 C-36.11960902 30.15154393 -30.72056436 24.87427463 -25.34716797 19.47753906 C-23.87448668 17.99948481 -22.39651762 16.52686965 -20.91796875 15.0546875 C-15.23059977 9.40020625 -15.23059977 9.40020625 -9.9453125 3.375 C-6.89486842 -0.34923695 -4.70457911 -0.38404727 0 0 Z " fill="#0FB981" transform="translate(336,230)"/>
<path d="M0 0 C0.71647705 -0.01023193 1.4329541 -0.02046387 2.17114258 -0.03100586 C7.23976967 0.05254615 10.83388601 1.19078087 15.375 3.4375 C14.715 5.7475 14.055 8.0575 13.375 10.4375 C10.08803767 11.23703138 8.66476808 11.53408936 5.375 10.4375 C-0.72432003 9.93959632 -6.60675779 9.52082316 -11.625 13.4375 C-16.87841749 20.04663813 -17.08072991 28.96874112 -16.40625 37.0625 C-15.45967157 42.45071566 -13.58037388 45.666097 -9.625 49.4375 C-3.04677632 52.79920684 4.72392002 51.3326533 11.625 49.375 C12.5325 49.065625 13.44 48.75625 14.375 48.4375 C14.375 51.7375 14.375 55.0375 14.375 58.4375 C3.83854837 62.0499977 -5.17082513 62.94111513 -15.625 58.4375 C-22.36647477 54.48809525 -25.62914027 47.76418164 -27.625 40.4375 C-28.89416641 28.45974198 -28.35407836 17.43749848 -20.9375 7.5625 C-14.88312463 1.2546163 -8.44678598 0.09370156 0 0 Z " fill="#0F172A" transform="translate(575.625,154.5625)"/>
<path d="M0 0 C2.6953125 1.7421875 2.6953125 1.7421875 5 5 C5.70166299 9.34417577 5.60589406 13.61020986 5.5 18 C5.50386719 19.7634375 5.50386719 19.7634375 5.5078125 21.5625 C5.39754478 31.26605968 5.39754478 31.26605968 2 36 C-1.20937409 38.32402951 -4.11506021 38.47570691 -8 38 C-10.69990662 36.20006226 -12.5418865 34.916227 -14 32 C-16.49616277 9.07228271 -16.49616277 9.07228271 -13 3 C-9.27042395 -1.54035345 -5.47642646 -1.32189604 0 0 Z " fill="#24BAE9" transform="translate(267,58)"/>
<path d="M0 0 C3.04883483 2.97065958 4.84283097 5.64708724 5.1328125 9.98828125 C5.12382861 12.6609883 5.07574527 15.32825791 5 18 C4.95746094 19.77890625 4.95746094 19.77890625 4.9140625 21.59375 C4.85992187 22.8209375 4.80578125 24.048125 4.75 25.3125 C4.68039063 27.03919922 4.68039063 27.03919922 4.609375 28.80078125 C3.88359543 32.611124 2.78045773 34.32180079 0 37 C-2.99237026 38.16161779 -5.81236921 38.30114872 -9 38 C-12.53724365 35.93660787 -13.70419522 34.88741435 -15 31 C-15.31222605 26.71341303 -15.32390535 22.42159585 -15.375 18.125 C-15.43107422 16.34802734 -15.43107422 16.34802734 -15.48828125 14.53515625 C-15.58712496 4.79355957 -15.58712496 4.79355957 -12.6015625 1.7421875 C-8.25138759 -1.17099269 -5.05651175 -1.48190839 0 0 Z " fill="#24BAE9" transform="translate(159,58)"/>
<path d="M0 0 C3.63 0 7.26 0 11 0 C11 19.47 11 38.94 11 59 C7.37 59 3.74 59 0 59 C0 39.53 0 20.06 0 0 Z " fill="#1B7DE9" transform="translate(660,156)"/>
<path d="M0 0 C29.7 0 59.4 0 90 0 C90 3.63 90 7.26 90 11 C89.505 9.02 89.505 9.02 89 7 C59.96 7 30.92 7 1 7 C0.67 8.32 0.34 9.64 0 11 C0 7.37 0 3.74 0 0 Z " fill="#DFE7EF" transform="translate(163,76)"/>
<path d="M0 0 C1.92840059 5.78520177 -1.56220257 12.57299859 -4 18 C-12.58551577 33.78707292 -25.85436203 44.9083661 -43.109375 50.07421875 C-49.40983263 51.57342403 -55.50478608 52.84548405 -62 52 C-64.86297611 50.09626846 -66.46734975 48.05767537 -68 45 C-65.07755775 43.53877887 -62.56623381 44.10040304 -59.3125 44.25 C-44.59697959 44.52283987 -31.34295257 38.15939524 -20.6875 28.1875 C-16.57800903 23.84970398 -11.70963534 18.06427513 -10.65625 12.03125 C-9.61856402 8.81936483 -7.34025559 7.06151171 -4.9375 4.75 C-3.55884766 3.41195313 -3.55884766 3.41195313 -2.15234375 2.046875 C-1.44207031 1.37140625 -0.73179687 0.6959375 0 0 Z " fill="#DFE6ED" transform="translate(322,256)"/>
<path d="M0 0 C12.625 -0.125 12.625 -0.125 16 1 C16.66 0.67 17.32 0.34 18 0 C24.37526008 -0.46365528 24.37526008 -0.46365528 26.7043457 1.26489258 C28.27897482 3.37359601 28.35173552 4.40639214 28.29296875 7.01171875 C28.28330078 7.76904297 28.27363281 8.52636719 28.26367188 9.30664062 C28.23853516 10.09232422 28.21339844 10.87800781 28.1875 11.6875 C28.16719727 12.88342773 28.16719727 12.88342773 28.14648438 14.10351562 C28.11117089 16.06929967 28.05736447 18.03473582 28 20 C26.68 20 25.36 20 24 20 C24 14.72 24 9.44 24 4 C22.35 4 20.7 4 19 4 C16.65229357 7.52155964 16.62330386 9.50771843 16.375 13.6875 C16.30023438 14.86699219 16.22546875 16.04648437 16.1484375 17.26171875 C16.09945313 18.16535156 16.05046875 19.06898438 16 20 C14.68 20 13.36 20 12 20 C12 14.72 12 9.44 12 4 C10.35 4 8.7 4 7 4 C4.65229357 7.52155964 4.62330386 9.50771843 4.375 13.6875 C4.30023438 14.86699219 4.22546875 16.04648437 4.1484375 17.26171875 C4.09945313 18.16535156 4.05046875 19.06898438 4 20 C2.68 20 1.36 20 0 20 C0 13.4 0 6.8 0 0 Z " fill="#64748B" transform="translate(436,259)"/>
<path d="M0 0 C12.625 -0.125 12.625 -0.125 16 1 C16.66 0.67 17.32 0.34 18 0 C21.4375 -0.3125 21.4375 -0.3125 25 0 C27.86245503 2.5160849 28.00366968 4.04873329 28.29296875 7.890625 C28.27314945 9.34404009 28.23754845 10.79731167 28.1875 12.25 C28.16719727 13.36761719 28.16719727 13.36761719 28.14648438 14.5078125 C28.11127204 16.33885416 28.05746851 18.16952169 28 20 C26.68 20 25.36 20 24 20 C23.67 15.05 23.34 10.1 23 5 C19.36380344 3.91915479 19.36380344 3.91915479 17 4 C16.67 9.28 16.34 14.56 16 20 C14.68 20 13.36 20 12 20 C11.67 15.05 11.34 10.1 11 5 C7.36380344 3.91915479 7.36380344 3.91915479 5 4 C4.67 9.28 4.34 14.56 4 20 C2.68 20 1.36 20 0 20 C0 13.4 0 6.8 0 0 Z " fill="#64748B" transform="translate(752,259)"/>
<path d="M0 0 C6 1 6 1 7 2 C7.34005936 6.75306879 7.39965162 11.50826722 7.45996094 16.2722168 C7.48651031 17.87375895 7.52737349 19.475132 7.58300781 21.07592773 C7.66244841 23.38855838 7.69531676 25.6979208 7.71875 28.01171875 C7.75174194 28.72132248 7.78473389 29.43092621 7.81872559 30.16203308 C7.81054688 32.21362305 7.81054688 32.21362305 7 36 C4.69 37.98 2.38 39.96 0 42 C0 28.14 0 14.28 0 0 Z " fill="#DEE5ED" transform="translate(317,201)"/>
<path d="M0 0 C1.32 0.33 2.64 0.66 4 1 C4.66 0.67 5.32 0.34 6 0 C10.04637274 -0.44959697 12.15244824 -0.65196289 15.4375 1.875 C17.65403218 6.30806436 17.7734987 10.13572981 17 15 C15.4375 18.125 15.4375 18.125 13 20 C9.55602925 20.35627284 7.12860495 20.56430248 4 19 C4 21.97 4 24.94 4 28 C2.68 28 1.36 28 0 28 C0 18.76 0 9.52 0 0 Z M5.3125 4 C3.24107328 7.15645977 3.43648049 10.33712322 4 14 C5.06718298 16.15565917 5.06718298 16.15565917 7 17 C9.97397616 16.72963853 10.85446026 16.14553974 13 14 C13.57821009 8.70482344 13.57821009 8.70482344 11.6875 4 C9.2988563 2.58450744 7.7011437 2.58450744 5.3125 4 Z " fill="#64748B" transform="translate(596,259)"/>
<path d="M0 0 C1.32 0 2.64 0 4 0 C5.66943376 4.1447245 7.33508389 8.29095894 9 12.4375 C9.47695313 13.62150391 9.95390625 14.80550781 10.4453125 16.02539062 C10.89648438 17.15009766 11.34765625 18.27480469 11.8125 19.43359375 C12.23144531 20.47572021 12.65039062 21.51784668 13.08203125 22.59155273 C14 25 14 25 14 26 C12.35 26 10.7 26 9 26 C8.34 23.36 7.68 20.72 7 18 C3.7 18 0.4 18 -3 18 C-3.66 20.31 -4.32 22.62 -5 25 C-6.65 25.33 -8.3 25.66 -10 26 C-3.84965831 8.14350797 -3.84965831 8.14350797 0 0 Z M1 7 C0.34 9.31 -0.32 11.62 -1 14 C0.98 14 2.96 14 5 14 C4.34 11.69 3.68 9.38 3 7 C2.34 7 1.68 7 1 7 Z " fill="#64748B" transform="translate(572,253)"/>
<path d="M0 0 C1.32 0.33 2.64 0.66 4 1 C4.33 0.67 4.66 0.34 5 0 C12.09901455 -0.69826373 12.09901455 -0.69826373 15.5 1.9375 C17.52433426 6.07051578 17.69646871 9.47705026 17 14 C14.91891892 18.54054054 14.91891892 18.54054054 12 20 C8.4375 20.125 8.4375 20.125 5 20 C4.67 19.67 4.34 19.34 4 19 C3.67 21.97 3.34 24.94 3 28 C2.01 28 1.02 28 0 28 C0 18.76 0 9.52 0 0 Z M4 5 C3.04393285 8.30946321 2.86745932 10.45778814 3.6875 13.8125 C4.81488935 16.09838374 4.81488935 16.09838374 6.875 17.0625 C9.16532931 17.18868028 9.16532931 17.18868028 11.25 15.4375 C13.47963306 12.33193967 13.54716474 10.7519868 13 7 C11.82441332 4.59696445 11.82441332 4.59696445 10 3 C6.81509993 2.7226499 6.81509993 2.7226499 4 5 Z " fill="#64748B" transform="translate(626,259)"/>
<path d="M0 0 C0.33 0 0.66 0 1 0 C1.11975735 5.77496561 1.01144099 11.54255809 0.75 17.3125 C0.68039063 19.03919922 0.68039063 19.03919922 0.609375 20.80078125 C-0.1177516 24.61819591 -1.19056312 26.33688796 -4 29 C-6.359375 29.70703125 -6.359375 29.70703125 -8.75 29.8125 C-9.94882813 29.88404297 -9.94882813 29.88404297 -11.171875 29.95703125 C-11.77515625 29.97121094 -12.3784375 29.98539063 -13 30 C-14 27 -14 27 -12.93603516 24.28857422 C-12.39253418 23.2213916 -11.8490332 22.15420898 -11.2890625 21.0546875 C-10.70382813 19.89582031 -10.11859375 18.73695312 -9.515625 17.54296875 C-8.88545415 16.32029318 -8.25524536 15.09763717 -7.625 13.875 C-7.00173394 12.64497181 -6.37932743 11.41450768 -5.7578125 10.18359375 C-1.18149447 1.18149447 -1.18149447 1.18149447 0 0 Z " fill="#17B8DE" transform="translate(163,66)"/>
<path d="M0 0 C0.33 0 0.66 0 1 0 C1.08741124 3.56234428 1.14052896 7.12441108 1.1875 10.6875 C1.22520508 12.19860352 1.22520508 12.19860352 1.26367188 13.74023438 C1.35605529 23.07095966 1.35605529 23.07095966 -2 27 C-5.22158636 29.33287288 -8.10957355 29.17683757 -12 29 C-13 26 -13 26 -11.92016602 23.27270508 C-11.37030029 22.19915771 -10.82043457 21.12561035 -10.25390625 20.01953125 C-9.36928711 18.27446289 -9.36928711 18.27446289 -8.46679688 16.49414062 C-7.8322452 15.26681644 -7.19747676 14.03960431 -6.5625 12.8125 C-5.93072804 11.57403282 -5.29985725 10.33510548 -4.66992188 9.09570312 C-3.12210641 6.05914911 -1.56516863 3.02763591 0 0 Z " fill="#16B9DE" transform="translate(271,67)"/>
<path d="M0 0 C1.31677734 0.00966797 1.31677734 0.00966797 2.66015625 0.01953125 C4.9375 0.1875 4.9375 0.1875 6.9375 1.1875 C6.6075 2.1775 6.2775 3.1675 5.9375 4.1875 C2.9675 4.1875 -0.0025 4.1875 -3.0625 4.1875 C-3.3925 5.5075 -3.7225 6.8275 -4.0625 8.1875 C-3.12277344 8.69410156 -3.12277344 8.69410156 -2.1640625 9.2109375 C-1.34679687 9.65695312 -0.52953125 10.10296875 0.3125 10.5625 C1.12460937 11.00335938 1.93671875 11.44421875 2.7734375 11.8984375 C4.9375 13.1875 4.9375 13.1875 6.9375 15.1875 C7.35402031 18.93618276 7.4354164 21.30483001 5.5625 24.625 C1.54595824 27.01579866 -2.49423948 26.67297716 -7.0625 26.1875 C-7.7225 25.8575 -8.3825 25.5275 -9.0625 25.1875 C-8.7325 23.8675 -8.4025 22.5475 -8.0625 21.1875 C-6.969375 21.373125 -5.87625 21.55875 -4.75 21.75 C-1.12625867 22.4453068 -1.12625867 22.4453068 1.9375 21.1875 C2.06565365 18.8022267 2.06565365 18.8022267 0.9375 16.1875 C-1.02917391 14.95130497 -3.00446883 14.06066705 -5.15234375 13.1796875 C-7.0625 12.1875 -7.0625 12.1875 -9.0625 9.1875 C-8.875 5.625 -8.875 5.625 -8.0625 2.1875 C-4.79122414 0.00664943 -3.78873277 -0.06137859 0 0 Z " fill="#64748B" transform="translate(417.0625,252.8125)"/>
<path d="M0 0 C0.78246094 -0.02578125 1.56492187 -0.0515625 2.37109375 -0.078125 C5.13179231 0.33524163 5.84011714 1.0926074 7.5625 3.25 C7.90307617 5.15112305 7.90307617 5.15112305 7.85546875 7.26171875 C7.84580078 8.01904297 7.83613281 8.77636719 7.82617188 9.55664062 C7.80103516 10.34232422 7.77589844 11.12800781 7.75 11.9375 C7.72969727 13.13342773 7.72969727 13.13342773 7.70898438 14.35351562 C7.67367089 16.31929967 7.61986447 18.28473582 7.5625 20.25 C6.94375 20.064375 6.325 19.87875 5.6875 19.6875 C3.52089822 19.01313824 3.52089822 19.01313824 1.5625 20.25 C-4.65832585 20.7024237 -4.65832585 20.7024237 -7.375 19.125 C-8.95975401 16.32837528 -8.89697423 14.4006804 -8.4375 11.25 C-6.9375 9.375 -6.9375 9.375 -4.4375 8.25 C-1.71680412 8.01635245 0.82116151 8.11293308 3.5625 8.25 C2.9025 6.93 2.2425 5.61 1.5625 4.25 C-1.0775 4.25 -3.7175 4.25 -6.4375 4.25 C-6.4375 3.26 -6.4375 2.27 -6.4375 1.25 C-4.11063547 0.08656773 -2.59028587 0.05104012 0 0 Z M-4.4375 13.25 C-4.1189823 15.35820797 -4.1189823 15.35820797 -3.4375 17.25 C-1.4575 16.92 0.5225 16.59 2.5625 16.25 C2.8925 14.6 3.2225 12.95 3.5625 11.25 C-0.93054582 10.82496554 -0.93054582 10.82496554 -4.4375 13.25 Z " fill="#64748B" transform="translate(484.4375,258.75)"/>
<path d="M0 0 C2.375 1.5625 2.375 1.5625 4 4 C4.75 7.75 4.75 7.75 5 11 C0.71 11 -3.58 11 -8 11 C-7.34 12.32 -6.68 13.64 -6 15 C-2.36603322 16.02699061 0.41871818 16.23967448 4 15 C4 16.32 4 17.64 4 19 C0.50797535 20.74601232 -3.18982279 20.55838804 -7 20 C-10.0625 18.0625 -10.0625 18.0625 -12 15 C-12.82520622 10.56952389 -12.50183383 7.09491018 -10.625 3 C-7.59133773 -0.73373818 -4.62078888 -0.39834387 0 0 Z M-6.8125 4.3125 C-8.19183114 5.92869435 -8.19183114 5.92869435 -8 8 C-5.03 8 -2.06 8 1 8 C0.67 6.68 0.34 5.36 0 4 C-3.58563992 2.80757578 -3.58563992 2.80757578 -6.8125 4.3125 Z " fill="#64748B" transform="translate(804,259)"/>
<path d="M0 0 C3 1.875 3 1.875 5 5 C6.02120414 10.10602071 5.82822957 13.74510672 2.9375 18.125 C-0.76802378 20.49022795 -2.67561906 20.69498979 -7 20 C-9.875 18.5625 -9.875 18.5625 -12 16 C-13.18140357 11.86122672 -13.31358167 8.22819486 -12.25 4.0625 C-9.39757801 -0.64399628 -5.01113047 -0.90668314 0 0 Z M-7.1875 4.625 C-9.22566095 6.91179913 -9.22566095 6.91179913 -9.5 10 C-8.90092877 13.5944274 -7.7822335 14.73943528 -5 17 C-1.75016865 15.91215032 -1.75016865 15.91215032 1 14 C1.5342423 8.71016229 1.5342423 8.71016229 -0.3125 4 C-3.16763883 2.30806588 -4.59653458 2.70028283 -7.1875 4.625 Z " fill="#64748B" transform="translate(667,259)"/>
<path d="M0 0 C1.32 0.33 2.64 0.66 4 1 C4.33 0.67 4.66 0.34 5 0 C12.39604466 -0.47716417 12.39604466 -0.47716417 14.60717773 1.26977539 C16.30330523 3.376779 16.35320167 4.34139267 16.29296875 7.01171875 C16.28330078 7.76904297 16.27363281 8.52636719 16.26367188 9.30664062 C16.23853516 10.09232422 16.21339844 10.87800781 16.1875 11.6875 C16.16719727 12.88342773 16.16719727 12.88342773 16.14648438 14.10351562 C16.11117089 16.06929967 16.05736447 18.03473582 16 20 C14.68 20 13.36 20 12 20 C12 14.72 12 9.44 12 4 C9.69 4.33 7.38 4.66 5 5 C4.34 9.95 3.68 14.9 3 20 C2.01 20 1.02 20 0 20 C0 13.4 0 6.8 0 0 Z " fill="#64748B" transform="translate(702,259)"/>
<path d="M0 0 C1.32 0.33 2.64 0.66 4 1 C4.66 0.67 5.32 0.34 6 0 C12.37526008 -0.46365528 12.37526008 -0.46365528 14.7043457 1.26489258 C16.27897482 3.37359601 16.35173552 4.40639214 16.29296875 7.01171875 C16.28330078 7.76904297 16.27363281 8.52636719 16.26367188 9.30664062 C16.23853516 10.09232422 16.21339844 10.87800781 16.1875 11.6875 C16.16719727 12.88342773 16.16719727 12.88342773 16.14648438 14.10351562 C16.11117089 16.06929967 16.05736447 18.03473582 16 20 C15.01 20 14.02 20 13 20 C12.67 14.72 12.34 9.44 12 4 C9.69 4 7.38 4 5 4 C4.67 9.28 4.34 14.56 4 20 C2.68 20 1.36 20 0 20 C0 13.4 0 6.8 0 0 Z " fill="#64748B" transform="translate(821,259)"/>
<path d="M0 0 C1.17755859 0.02320313 1.17755859 0.02320313 2.37890625 0.046875 C4.4375 0.25 4.4375 0.25 6.4375 1.25 C6.1075 2.24 5.7775 3.23 5.4375 4.25 C2.7975 4.25 0.1575 4.25 -2.5625 4.25 C-2.5625 4.91 -2.5625 5.57 -2.5625 6.25 C0.4075 7.9 3.3775 9.55 6.4375 11.25 C6.9175 16.65 6.9175 16.65 4.9375 19.125 C1.26659094 20.77690908 -1.54576923 20.50914392 -5.5625 20.25 C-6.2225 19.92 -6.8825 19.59 -7.5625 19.25 C-7.2325 17.93 -6.9025 16.61 -6.5625 15.25 C-3.9225 15.58 -1.2825 15.91 1.4375 16.25 C1.4375 15.26 1.4375 14.27 1.4375 13.25 C0.87160156 12.97285156 0.30570313 12.69570313 -0.27734375 12.41015625 C-1.01082031 12.04792969 -1.74429688 11.68570312 -2.5 11.3125 C-3.59634766 10.77302734 -3.59634766 10.77302734 -4.71484375 10.22265625 C-6.5625 9.25 -6.5625 9.25 -7.5625 8.25 C-8.02376812 3.86795285 -8.02376812 3.86795285 -6.33203125 1.6015625 C-4.07335665 -0.12360618 -2.81136591 -0.0926315 0 0 Z " fill="#64748B" transform="translate(877.5625,258.75)"/>
<path d="M0 0 C0.99 0 1.98 0 3 0 C3 1.32 3 2.64 3 4 C4.65 4 6.3 4 8 4 C8 4.99 8 5.98 8 7 C6.35 7 4.7 7 3 7 C3.33 11.29 3.66 15.58 4 20 C5.32 20.33 6.64 20.66 8 21 C8 21.99 8 22.98 8 24 C4.625 24.125 4.625 24.125 1 24 C-1 22 -1 22 -1.1953125 18.5234375 C-1.18201493 17.14049032 -1.15816232 15.75761346 -1.125 14.375 C-1.11597656 13.66859375 -1.10695313 12.9621875 -1.09765625 12.234375 C-1.07407603 10.48943902 -1.03820461 8.74467705 -1 7 C-1.99 7 -2.98 7 -4 7 C-3.67 6.01 -3.34 5.02 -3 4 C-2.34 4 -1.68 4 -1 4 C-0.67 2.68 -0.34 1.36 0 0 Z " fill="#64748B" transform="translate(529,255)"/>
<path d="M0 0 C0.99 0 1.98 0 3 0 C3 1.32 3 2.64 3 4 C4.65 4 6.3 4 8 4 C8 4.99 8 5.98 8 7 C6.35 7 4.7 7 3 7 C3.33 11.29 3.66 15.58 4 20 C5.32 20.33 6.64 20.66 8 21 C8 21.99 8 22.98 8 24 C2.57446809 24.36170213 2.57446809 24.36170213 0.3125 22.9375 C-1.70439276 19.96018212 -1.28491047 17.35174705 -1.1875 13.8125 C-1.16042969 12.54019531 -1.13335938 11.26789063 -1.10546875 9.95703125 C-1.07066406 8.98121094 -1.03585937 8.00539063 -1 7 C-1.99 7 -2.98 7 -4 7 C-3.67 6.01 -3.34 5.02 -3 4 C-2.34 4 -1.68 4 -1 4 C-0.67 2.68 -0.34 1.36 0 0 Z " fill="#64748B" transform="translate(852,255)"/>
<path d="M0 0 C2.5829243 2.83288472 3.02528106 4.35533306 2.875 8.1875 C2 11 2 11 -1 13 C-6.44444444 12.55555556 -6.44444444 12.55555556 -9 10 C-9.55021834 3.94759825 -9.55021834 3.94759825 -7.875 1.0625 C-5.04485189 -0.54125059 -3.18502524 -0.53083754 0 0 Z " fill="#1888EA" transform="translate(669,134)"/>
<path d="M0 0 C0.66 0 1.32 0 2 0 C2 1.32 2 2.64 2 4 C3.98 4 5.96 4 8 4 C8 4.99 8 5.98 8 7 C6.02 7 4.04 7 2 7 C2.14084796 8.79206547 2.28783701 10.58364917 2.4375 12.375 C2.51871094 13.37273437 2.59992187 14.37046875 2.68359375 15.3984375 C2.84965626 17.97927613 2.84965626 17.97927613 4 20 C5.32 20 6.64 20 8 20 C8 21.32 8 22.64 8 24 C4.625 24.125 4.625 24.125 1 24 C-1 22 -1 22 -1.1953125 18.5234375 C-1.18201493 17.14049032 -1.15816232 15.75761346 -1.125 14.375 C-1.11597656 13.66859375 -1.10695313 12.9621875 -1.09765625 12.234375 C-1.07407603 10.48943902 -1.03820461 8.74467705 -1 7 C-1.99 7 -2.98 7 -4 7 C-3.67 6.01 -3.34 5.02 -3 4 C-2.34 4 -1.68 4 -1 4 C-0.67 2.68 -0.34 1.36 0 0 Z " fill="#64748B" transform="translate(733,255)"/>
<path d="M0 0 C0.99 0 1.98 0 3 0 C3 0.66 3 1.32 3 2 C3.99 1.34 4.98 0.68 6 0 C9.1875 -0.125 9.1875 -0.125 12 0 C11.67 1.32 11.34 2.64 11 4 C10.195625 4.12375 9.39125 4.2475 8.5625 4.375 C7.2940625 4.684375 7.2940625 4.684375 6 5 C4.58365167 7.83269666 4.6536995 10.47466438 4.4375 13.625 C4.35371094 14.81351562 4.26992188 16.00203125 4.18359375 17.2265625 C4.12300781 18.14179688 4.06242187 19.05703125 4 20 C2.68 20 1.36 20 0 20 C0 13.4 0 6.8 0 0 Z " fill="#64748B" transform="translate(505,259)"/>
<path d="M0 0 C1.32 0 2.64 0 4 0 C4 6.6 4 13.2 4 20 C2.68 20 1.36 20 0 20 C0 13.4 0 6.8 0 0 Z " fill="#64748B" transform="translate(684,259)"/>
<path d="M0 0 C1.98 0.495 1.98 0.495 4 1 C3.67 2.32 3.34 3.64 3 5 C1.68 4.67 0.36 4.34 -1 4 C-0.67 2.68 -0.34 1.36 0 0 Z " fill="#65758C" transform="translate(685,252)"/>
<path d="M0 0 C-1.65 1.32 -3.3 2.64 -5 4 C-5.99 3.01 -6.98 2.02 -8 1 C-5.29120665 -0.35439668 -2.99066732 -0.06501451 0 0 Z " fill="#000030" transform="translate(270,307)"/>
</svg>
